<?xml version="1.0" standalone="no"?>
<!DOCTYPE svg PUBLIC "-//W3C//DTD SVG 20010904//EN"
 "http://www.w3.org/TR/2001/REC-SVG-20010904/DTD/svg10.dtd">
<svg version="1.0" xmlns="http://www.w3.org/2000/svg"
 width="1280.000000pt" height="1280.000000pt" viewBox="0 0 1280.000000 1280.000000"
 preserveAspectRatio="xMidYMid meet">
<metadata>
Created by potrace 1.15, written by Peter Selinger 2001-2017
</metadata>
<g transform="translate(0.000000,1280.000000) scale(0.100000,-0.100000)"
fill="#1dbf73" stroke="none">
<path d="M11620 10279 c-58 -4 -184 -15 -280 -23 -96 -9 -260 -22 -365 -31
-104 -8 -215 -17 -245 -21 -93 -10 -200 -19 -485 -44 -210 -18 -350 -31 -380
-35 -16 -2 -75 -6 -130 -10 -55 -3 -120 -10 -145 -15 -25 -5 -130 -16 -235
-25 -104 -9 -219 -20 -255 -25 -57 -7 -75 -4 -150 20 -47 15 -114 35 -150 43
-36 9 -108 25 -160 38 -52 12 -129 32 -170 45 -86 26 -248 54 -317 54 -141 0
-398 -88 -538 -184 -64 -43 -182 -143 -216 -181 -48 -55 -164 -295 -180 -374
-8 -35 -19 -65 -25 -68 -6 -2 -44 9 -85 25 -98 38 -542 180 -799 256 -47 13
-137 40 -200 59 -63 19 -164 49 -225 67 -60 17 -137 40 -170 50 -79 24 -319
86 -370 95 -22 4 -58 12 -80 20 -54 17 -218 51 -335 69 -94 14 -155 12 -166
-5 -16 -26 145 -116 331 -184 55 -20 102 -39 105 -42 3 -2 -43 -1 -102 3 -95
6 -108 5 -114 -10 -4 -9 1 -25 10 -35 21 -23 141 -82 231 -115 39 -14 68 -25
65 -26 -3 0 -27 -3 -53 -5 -73 -7 -83 -19 -46 -54 46 -42 169 -92 363 -146 68
-19 67 -29 -5 -26 -60 2 -129 -15 -129 -32 0 -23 16 -36 82 -66 71 -33 168
-65 231 -76 40 -8 60 -24 30 -26 -125 -5 -171 -32 -125 -71 30 -26 145 -66
256 -89 58 -12 105 -24 103 -25 -1 -2 -18 -6 -36 -9 -67 -12 -87 -35 -53 -62
53 -42 157 -84 257 -103 89 -17 96 -22 35 -31 -97 -13 -100 -60 -7 -103 71
-34 200 -76 231 -76 34 0 37 -9 19 -61 -16 -45 -16 -45 13 -99 20 -37 42 -61
69 -76 46 -26 156 -54 214 -54 39 0 40 -1 35 -28 -9 -44 48 -128 107 -157 39
-20 59 -24 120 -21 41 2 91 7 112 11 l37 7 0 -116 0 -116 -42 -21 c-23 -12
-69 -32 -102 -44 -34 -13 -87 -35 -119 -49 -31 -14 -112 -42 -180 -62 -465
-138 -520 -158 -573 -209 -7 -7 -59 -17 -115 -24 -102 -12 -197 -25 -394 -57
-55 -9 -116 -18 -135 -21 -19 -3 -55 -9 -80 -14 -67 -13 -141 -27 -175 -33
-16 -3 -79 -15 -140 -27 -60 -11 -130 -25 -155 -29 -81 -15 -363 -71 -440 -86
-41 -9 -98 -20 -126 -24 -29 -4 -61 -11 -73 -15 -12 -3 -81 -18 -154 -31 -72
-14 -190 -37 -262 -51 -71 -14 -148 -28 -170 -32 -22 -4 -74 -15 -115 -24 -69
-15 -355 -73 -510 -102 -69 -14 -100 -20 -280 -59 -63 -14 -158 -34 -210 -45
-52 -12 -113 -25 -135 -31 -22 -5 -92 -21 -155 -35 -243 -55 -567 -133 -855
-207 -110 -28 -225 -57 -255 -64 -83 -20 -201 -54 -219 -64 -9 -4 -39 -13 -66
-18 -28 -6 -63 -15 -80 -21 -16 -6 -64 -20 -105 -32 -41 -11 -88 -27 -105 -34
-16 -7 -40 -16 -53 -20 -13 -4 -58 -23 -100 -42 l-77 -35 30 -16 c21 -11 59
-16 130 -16 218 -2 411 21 905 106 96 16 200 34 230 38 30 5 73 12 95 16 64
11 38 -1 -85 -39 -63 -20 -160 -52 -215 -72 -55 -20 -134 -47 -175 -59 -99
-30 -274 -117 -278 -138 -2 -12 9 -20 40 -29 35 -10 70 -8 188 6 80 10 158 17
175 17 16 -1 59 5 95 13 36 7 117 23 180 35 63 11 155 30 203 41 104 22 104
22 89 7 -7 -7 -47 -24 -90 -39 -42 -15 -97 -35 -122 -44 -56 -20 -175 -81
-213 -107 -26 -18 -27 -22 -14 -36 22 -21 115 -20 287 2 182 23 326 52 635
126 44 10 128 30 186 44 120 29 122 30 114 17 -3 -5 -22 -15 -43 -21 -32 -10
-71 -27 -248 -106 -135 -60 -175 -79 -226 -110 -62 -38 -77 -70 -35 -78 60
-13 83 -13 130 -1 29 7 84 16 122 20 39 4 160 29 270 57 110 27 216 53 235 58
19 4 58 15 87 25 106 35 71 7 -93 -75 -295 -148 -351 -200 -229 -213 22 -2 50
-1 61 4 12 4 75 17 140 29 129 23 152 29 477 132 120 38 223 67 230 65 10 -4
-173 -97 -190 -97 -3 0 -24 -15 -46 -32 -23 -18 -50 -38 -62 -43 -11 -6 -21
-20 -23 -32 -3 -18 3 -23 33 -29 90 -17 381 47 714 156 68 22 126 39 127 37 2
-2 -21 -16 -51 -31 -30 -15 -57 -31 -60 -36 -3 -5 -22 -14 -43 -21 -48 -16
-127 -66 -177 -113 -39 -37 -39 -38 -20 -53 22 -16 95 -13 248 12 82 13 361
91 432 121 20 8 40 13 42 10 3 -3 -11 -40 -31 -82 -25 -50 -36 -83 -31 -98 3
-11 27 -38 53 -60 l46 -39 103 7 c87 6 118 13 204 47 56 22 142 60 190 85 49
24 91 44 94 44 2 0 0 -12 -5 -26 -18 -48 -12 -68 36 -106 81 -66 144 -64 309
10 115 51 231 124 403 254 61 47 102 73 102 64 0 -8 -4 -17 -9 -20 -5 -3 -21
-29 -37 -58 -15 -29 -33 -64 -41 -78 -7 -14 -13 -53 -13 -86 0 -73 21 -106 77
-125 107 -35 264 42 446 218 85 83 298 324 338 384 91 136 131 168 94 77 -9
-23 -40 -136 -69 -252 -60 -238 -80 -402 -52 -425 12 -10 19 -10 35 1 17 12
91 113 91 124 0 2 23 52 50 110 28 59 59 132 69 164 10 31 29 74 40 96 l22 39
-6 -45 c-3 -25 -10 -76 -15 -115 -25 -178 -22 -321 6 -332 46 -18 121 141 209
442 15 50 33 108 41 130 15 44 15 52 -2 -235 -6 -106 13 -265 33 -282 27 -22
65 36 106 162 20 63 39 132 42 153 3 20 9 37 13 37 4 0 23 -46 41 -102 18 -57
61 -157 95 -223 34 -66 80 -160 103 -210 l42 -90 9 -200 c9 -203 8 -1063 -1
-1100 -2 -11 -8 -63 -11 -115 -4 -52 -9 -111 -12 -130 -2 -19 -11 -91 -19
-160 -20 -168 -52 -393 -66 -460 -6 -30 -15 -80 -19 -110 -8 -61 -61 -321 -90
-445 -10 -44 -26 -116 -36 -160 -9 -44 -27 -127 -40 -185 -31 -144 -36 -193
-20 -215 12 -17 14 -16 35 6 28 30 52 75 114 214 42 94 141 358 152 405 34
148 60 238 69 247 5 4 6 -1 3 -12 -3 -11 -8 -74 -12 -140 -3 -66 -8 -157 -10
-203 -7 -132 32 -198 81 -137 25 32 37 58 88 191 54 140 103 352 121 526 4 32
10 60 14 62 4 3 15 -43 24 -102 29 -178 50 -251 82 -283 15 -16 34 -29 41 -29
43 0 94 95 123 233 33 152 34 161 35 349 0 98 3 178 6 178 3 0 18 -33 34 -73
32 -81 94 -191 125 -224 12 -12 39 -28 61 -34 33 -10 43 -9 63 4 57 37 86 226
62 409 -8 62 -21 138 -30 168 -8 30 -15 66 -15 80 0 24 2 23 32 -15 148 -184
303 -251 371 -161 22 28 26 43 26 106 0 48 -7 97 -21 139 -26 82 -113 283
-146 334 -29 47 -21 59 16 25 85 -79 220 -153 317 -173 85 -18 121 -12 162 27
21 20 23 27 17 82 -9 74 -25 112 -89 207 -39 58 -101 136 -143 179 -19 19 -43
48 -55 64 -20 28 -20 29 -1 22 10 -4 80 -28 154 -54 130 -45 139 -47 250 -47
129 0 168 12 184 58 8 23 5 37 -19 82 -17 30 -33 55 -36 55 -3 0 -32 25 -65
55 -33 30 -114 94 -180 141 l-119 86 60 -7 c58 -7 75 -10 125 -20 61 -12 227
-15 302 -5 104 15 178 51 178 87 0 28 -79 108 -132 134 -186 92 -280 131 -513
214 -71 26 -179 65 -240 87 -60 21 -132 46 -160 55 -110 33 -346 127 -445 177
l-105 52 -3 42 c-2 29 3 51 16 70 32 47 134 289 204 482 11 30 23 64 28 75 5
11 19 45 30 75 24 62 42 80 82 80 20 0 26 -4 22 -15 -10 -24 14 -68 49 -92 42
-28 105 -34 120 -11 16 24 3 32 -50 33 -35 0 -49 5 -60 22 -13 19 -12 23 8 42
13 12 37 21 53 22 17 1 42 4 56 8 27 8 75 -10 83 -31 2 -7 -10 -25 -27 -40
-30 -27 -30 -28 -12 -43 11 -8 14 -15 8 -15 -7 0 -18 -11 -24 -25 -9 -21 -8
-28 7 -45 28 -31 43 -25 101 38 70 74 83 114 56 168 -40 79 -38 93 19 159 46
55 50 63 46 100 -3 22 -14 62 -26 88 -26 59 -69 82 -129 69 -25 -6 -51 -5 -73
2 -33 11 -34 13 -62 121 -41 158 -49 234 -52 470 -4 263 -15 358 -55 455 -40
97 -110 234 -172 338 -85 141 -124 245 -148 389 -12 70 -23 139 -26 153 -3 20
22 60 131 205 75 99 154 205 177 235 125 167 156 205 182 221 16 10 88 32 160
49 72 17 154 37 181 44 44 12 104 25 305 66 30 6 105 20 165 31 61 11 133 24
160 29 28 5 99 18 158 29 59 12 129 23 155 26 26 4 54 8 62 11 8 2 74 13 145
24 72 11 171 27 220 34 50 8 110 17 135 21 25 3 74 11 110 16 36 6 245 34 465
63 220 29 412 59 425 66 23 13 24 13 5 21 -25 10 -147 9 -285 -2z m-2456
-3260 c26 -20 26 -22 10 -40 -9 -11 -23 -19 -31 -19 -15 0 -17 -12 -3 -26 7
-7 6 -19 -2 -37 -10 -21 -22 -28 -57 -33 -52 -8 -114 16 -105 41 4 8 7 15 8
15 0 0 23 -7 50 -15 53 -16 76 -9 76 26 0 16 -7 18 -46 17 -46 -2 -74 16 -74
48 0 18 61 38 126 43 12 0 33 -9 48 -20z"/>
</g>
</svg>
